<svg width="64" height="64" viewBox="0 0 64 64" fill="none" xmlns="http://www.w3.org/2000/svg">
<path d="M0 32C0 14.3269 14.3269 0 32 0C49.6731 0 64 14.3269 64 32C64 49.6731 49.6731 64 32 64C14.3269 64 0 49.6731 0 32Z" fill="#DBEAFE"/>
<path d="M37.3327 42.6667V21.3334C37.3327 20.6261 37.0517 19.9478 36.5516 19.4477C36.0515 18.9476 35.3733 18.6667 34.666 18.6667H29.3327C28.6254 18.6667 27.9472 18.9476 27.4471 19.4477C26.947 19.9478 26.666 20.6261 26.666 21.3334V42.6667" stroke="#155DFC" stroke-width="2.66667" stroke-linecap="round" stroke-linejoin="round"/>
<path d="M42.666 24H21.3327C19.8599 24 18.666 25.1939 18.666 26.6667V40C18.666 41.4728 19.8599 42.6667 21.3327 42.6667H42.666C44.1388 42.6667 45.3327 41.4728 45.3327 40V26.6667C45.3327 25.1939 44.1388 24 42.666 24Z" stroke="#155DFC" stroke-width="2.66667" stroke-linecap="round" stroke-linejoin="round"/>
</svg>
