<svg width="20" height="20" viewBox="0 0 20 20" fill="none" xmlns="http://www.w3.org/2000/svg">
<path d="M12.1125 18.0716C12.1442 18.1505 12.1992 18.2179 12.2702 18.2646C12.3413 18.3113 12.4249 18.3352 12.5099 18.333C12.5949 18.3308 12.6772 18.3027 12.7457 18.2524C12.8143 18.2021 12.8658 18.1321 12.8934 18.0516L18.31 2.2183C18.3367 2.14446 18.3418 2.06455 18.3247 1.98793C18.3076 1.9113 18.2691 1.84113 18.2135 1.78561C18.158 1.7301 18.0879 1.69154 18.0112 1.67446C17.9346 1.65737 17.8547 1.66246 17.7809 1.68913L1.94752 7.1058C1.8671 7.13338 1.79704 7.1849 1.74675 7.25344C1.69645 7.32199 1.66833 7.40428 1.66615 7.48926C1.66398 7.57425 1.68785 7.65787 1.73457 7.7289C1.78129 7.79993 1.84862 7.85497 1.92752 7.88663L8.53585 10.5366C8.74476 10.6203 8.93456 10.7453 9.09382 10.9043C9.25309 11.0633 9.3785 11.2529 9.46252 11.4616L12.1125 18.0716Z" stroke="white" stroke-width="1.66667" stroke-linecap="round" stroke-linejoin="round"/>
<path d="M18.2124 1.78906L9.0957 10.9049" stroke="white" stroke-width="1.66667" stroke-linecap="round" stroke-linejoin="round"/>
</svg>
