<svg width="64" height="64" viewBox="0 0 64 64" fill="none" xmlns="http://www.w3.org/2000/svg">
<path d="M0 32C0 14.3269 14.3269 0 32 0C49.6731 0 64 14.3269 64 32C64 49.6731 49.6731 64 32 64C14.3269 64 0 49.6731 0 32Z" fill="#DBEAFE"/>
<path d="M37.3327 44V41.3333C37.3327 39.9188 36.7708 38.5623 35.7706 37.5621C34.7704 36.5619 33.4138 36 31.9993 36H23.9993C22.5849 36 21.2283 36.5619 20.2281 37.5621C19.2279 38.5623 18.666 39.9188 18.666 41.3333V44" stroke="#155DFC" stroke-width="2.66667" stroke-linecap="round" stroke-linejoin="round"/>
<path d="M27.9993 30.6667C30.9449 30.6667 33.3327 28.2789 33.3327 25.3333C33.3327 22.3878 30.9449 20 27.9993 20C25.0538 20 22.666 22.3878 22.666 25.3333C22.666 28.2789 25.0538 30.6667 27.9993 30.6667Z" stroke="#155DFC" stroke-width="2.66667" stroke-linecap="round" stroke-linejoin="round"/>
<path d="M45.334 44V41.3333C45.3331 40.1516 44.9398 39.0037 44.2158 38.0698C43.4918 37.1358 42.4782 36.4688 41.334 36.1733" stroke="#155DFC" stroke-width="2.66667" stroke-linecap="round" stroke-linejoin="round"/>
<path d="M37.334 20.1733C38.4812 20.4671 39.498 21.1343 40.2242 22.0698C40.9503 23.0052 41.3444 24.1558 41.3444 25.34C41.3444 26.5242 40.9503 27.6748 40.2242 28.6103C39.498 29.5457 38.4812 30.2129 37.334 30.5067" stroke="#155DFC" stroke-width="2.66667" stroke-linecap="round" stroke-linejoin="round"/>
</svg>
