<svg width="56" height="56" viewBox="0 0 56 56" fill="none" xmlns="http://www.w3.org/2000/svg">
<path d="M0 14C0 6.26801 6.26801 0 14 0H42C49.732 0 56 6.26801 56 14V42C56 49.732 49.732 56 42 56H14C6.26801 56 0 49.732 0 42V14Z" fill="url(#paint0_linear_21_5077)"/>
<path d="M32.6663 38.5V36.1667C32.6663 34.929 32.1747 33.742 31.2995 32.8668C30.4243 31.9917 29.2374 31.5 27.9997 31.5H20.9997C19.762 31.5 18.575 31.9917 17.6998 32.8668C16.8247 33.742 16.333 34.929 16.333 36.1667V38.5" stroke="white" stroke-width="2.33333" stroke-linecap="round" stroke-linejoin="round"/>
<path d="M24.4997 26.8333C27.077 26.8333 29.1663 24.744 29.1663 22.1667C29.1663 19.5893 27.077 17.5 24.4997 17.5C21.9223 17.5 19.833 19.5893 19.833 22.1667C19.833 24.744 21.9223 26.8333 24.4997 26.8333Z" stroke="white" stroke-width="2.33333" stroke-linecap="round" stroke-linejoin="round"/>
<path d="M39.667 38.4999V36.1666C39.6662 35.1326 39.3221 34.1282 38.6886 33.311C38.0551 32.4938 37.1681 31.9101 36.167 31.6516" stroke="white" stroke-width="2.33333" stroke-linecap="round" stroke-linejoin="round"/>
<path d="M32.667 17.6516C33.6708 17.9086 34.5605 18.4924 35.1959 19.311C35.8313 20.1295 36.1761 21.1362 36.1761 22.1724C36.1761 23.2086 35.8313 24.2154 35.1959 25.0339C34.5605 25.8525 33.6708 26.4363 32.667 26.6933" stroke="white" stroke-width="2.33333" stroke-linecap="round" stroke-linejoin="round"/>
<defs>
<linearGradient id="paint0_linear_21_5077" x1="0" y1="0" x2="56" y2="56" gradientUnits="userSpaceOnUse">
<stop stop-color="#2B7FFF"/>
<stop offset="1" stop-color="#155DFC"/>
</linearGradient>
</defs>
</svg>
