<svg width="56" height="56" viewBox="0 0 56 56" fill="none" xmlns="http://www.w3.org/2000/svg">
<path d="M0 14C0 6.26801 6.26801 0 14 0H42C49.732 0 56 6.26801 56 14V42C56 49.732 49.732 56 42 56H14C6.26801 56 0 49.732 0 42V14Z" fill="url(#paint0_linear_21_5050)"/>
<path d="M27.9997 39.6666C34.443 39.6666 39.6663 34.4432 39.6663 27.9999C39.6663 21.5566 34.443 16.3333 27.9997 16.3333C21.5564 16.3333 16.333 21.5566 16.333 27.9999C16.333 34.4432 21.5564 39.6666 27.9997 39.6666Z" stroke="white" stroke-width="2.33333" stroke-linecap="round" stroke-linejoin="round"/>
<path d="M28 35C31.866 35 35 31.866 35 28C35 24.134 31.866 21 28 21C24.134 21 21 24.134 21 28C21 31.866 24.134 35 28 35Z" stroke="white" stroke-width="2.33333" stroke-linecap="round" stroke-linejoin="round"/>
<path d="M28.0003 30.3334C29.289 30.3334 30.3337 29.2887 30.3337 28.0001C30.3337 26.7114 29.289 25.6667 28.0003 25.6667C26.7117 25.6667 25.667 26.7114 25.667 28.0001C25.667 29.2887 26.7117 30.3334 28.0003 30.3334Z" stroke="white" stroke-width="2.33333" stroke-linecap="round" stroke-linejoin="round"/>
<defs>
<linearGradient id="paint0_linear_21_5050" x1="0" y1="0" x2="56" y2="56" gradientUnits="userSpaceOnUse">
<stop stop-color="#2B7FFF"/>
<stop offset="1" stop-color="#155DFC"/>
</linearGradient>
</defs>
</svg>
