<svg width="48" height="48" viewBox="0 0 48 48" fill="none" xmlns="http://www.w3.org/2000/svg">
<path d="M0 10C0 4.47715 4.47715 0 10 0H38C43.5229 0 48 4.47715 48 10V38C48 43.5229 43.5228 48 38 48H10C4.47715 48 0 43.5228 0 38V10Z" fill="#DBEAFE"/>
<path d="M26.5358 33.6861C26.5738 33.7807 26.6398 33.8615 26.7251 33.9176C26.8103 33.9737 26.9107 34.0023 27.0126 33.9997C27.1146 33.9971 27.2134 33.9633 27.2956 33.903C27.3779 33.8426 27.4397 33.7586 27.4728 33.6621L33.9728 14.6621C34.0048 14.5734 34.0109 14.4776 33.9904 14.3856C33.9699 14.2937 33.9236 14.2094 33.857 14.1428C33.7904 14.0762 33.7062 14.03 33.6143 14.0094C33.5223 13.9889 33.4264 13.9951 33.3378 14.0271L14.3378 20.5271C14.2413 20.5602 14.1572 20.622 14.0969 20.7042C14.0365 20.7865 14.0028 20.8852 14.0002 20.9872C13.9976 21.0892 14.0262 21.1895 14.0823 21.2748C14.1383 21.36 14.2191 21.4261 14.3138 21.4641L22.2438 24.6441C22.4945 24.7444 22.7223 24.8945 22.9134 25.0853C23.1045 25.2761 23.255 25.5036 23.3558 25.7541L26.5358 33.6861Z" stroke="#155DFC" stroke-width="2" stroke-linecap="round" stroke-linejoin="round"/>
<path d="M33.8541 14.147L22.9141 25.086" stroke="#155DFC" stroke-width="2" stroke-linecap="round" stroke-linejoin="round"/>
</svg>
