<svg width="584" height="40" viewBox="0 0 584 40" fill="none" xmlns="http://www.w3.org/2000/svg">
<path d="M0 10C0 4.47715 4.47715 0 10 0H30C35.5228 0 40 4.47715 40 10V30C40 35.5228 35.5228 40 30 40H10C4.47715 40 0 35.5228 0 30V10Z" fill="#155DFC"/>
<g clip-path="url(#clip0_38_1784)">
<path d="M22.1135 28.0716C22.1452 28.1505 22.2002 28.2179 22.2712 28.2646C22.3423 28.3113 22.4259 28.3352 22.5109 28.333C22.5959 28.3308 22.6781 28.3027 22.7467 28.2524C22.8152 28.2021 22.8668 28.1321 22.8943 28.0516L28.311 12.2183C28.3377 12.1445 28.3428 12.0646 28.3257 11.9879C28.3086 11.9113 28.27 11.8411 28.2145 11.7856C28.159 11.7301 28.0888 11.6915 28.0122 11.6745C27.9356 11.6574 27.8557 11.6625 27.7818 11.6891L11.9485 17.1058C11.8681 17.1334 11.798 17.1849 11.7477 17.2534C11.6974 17.322 11.6693 17.4043 11.6671 17.4893C11.665 17.5743 11.6888 17.6579 11.7355 17.7289C11.7823 17.7999 11.8496 17.855 11.9285 17.8866L18.5368 20.5366C18.7457 20.6203 18.9355 20.7453 19.0948 20.9043C19.2541 21.0633 19.3795 21.2529 19.4635 21.4616L22.1135 28.0716Z" stroke="white" stroke-width="1.66667" stroke-linecap="round" stroke-linejoin="round"/>
<path d="M28.2114 11.7891L19.0947 20.9049" stroke="white" stroke-width="1.66667" stroke-linecap="round" stroke-linejoin="round"/>
</g>
<path d="M56 10C56 4.47715 60.4772 0 66 0H86C91.5228 0 96 4.47715 96 10V30C96 35.5228 91.5228 40 86 40H66C60.4772 40 56 35.5228 56 30V10Z" fill="#155DFC"/>
<g clip-path="url(#clip1_38_1784)">
<path d="M84.3332 24.0999V26.5999C84.3341 26.832 84.2866 27.0617 84.1936 27.2744C84.1006 27.487 83.9643 27.6779 83.7933 27.8348C83.6222 27.9917 83.4203 28.1112 83.2005 28.1855C82.9806 28.2599 82.7477 28.2875 82.5165 28.2666C79.9522 27.988 77.489 27.1117 75.3249 25.7083C73.3114 24.4288 71.6043 22.7217 70.3249 20.7083C68.9165 18.5343 68.0401 16.0591 67.7665 13.4833C67.7457 13.2528 67.7731 13.0206 67.8469 12.8013C67.9208 12.582 68.0395 12.3805 68.1955 12.2096C68.3515 12.0387 68.5414 11.9022 68.753 11.8087C68.9647 11.7152 69.1935 11.6668 69.4249 11.6666H71.9249C72.3293 11.6626 72.7214 11.8058 73.028 12.0695C73.3346 12.3332 73.5349 12.6995 73.5915 13.0999C73.697 13.9 73.8927 14.6855 74.1749 15.4416C74.287 15.7399 74.3112 16.064 74.2448 16.3757C74.1783 16.6873 74.0239 16.9733 73.7999 17.1999L72.7415 18.2583C73.9278 20.3445 75.6552 22.072 77.7415 23.2583L78.7999 22.1999C79.0264 21.9759 79.3125 21.8215 79.6241 21.755C79.9358 21.6885 80.2599 21.7128 80.5582 21.8249C81.3143 22.107 82.0998 22.3027 82.8999 22.4083C83.3047 22.4654 83.6744 22.6693 83.9386 22.9812C84.2029 23.2931 84.3433 23.6912 84.3332 24.0999Z" stroke="white" stroke-width="1.66667" stroke-linecap="round" stroke-linejoin="round"/>
</g>
<defs>
<clipPath id="clip0_38_1784">
<rect width="20" height="20" fill="white" transform="translate(10 10)"/>
</clipPath>
<clipPath id="clip1_38_1784">
<rect width="20" height="20" fill="white" transform="translate(66 10)"/>
</clipPath>
</defs>
</svg>
