<svg width="64" height="64" viewBox="0 0 64 64" fill="none" xmlns="http://www.w3.org/2000/svg">
<path d="M0 16C0 7.16344 7.16344 0 16 0H48C56.8366 0 64 7.16344 64 16V48C64 56.8366 56.8366 64 48 64H16C7.16344 64 0 56.8366 0 48V16Z" fill="white" fill-opacity="0.1"/>
<path d="M42.6663 29.3332C42.6663 35.9905 35.281 42.9238 32.801 45.0652C32.57 45.2389 32.2887 45.3328 31.9997 45.3328C31.7106 45.3328 31.4294 45.2389 31.1983 45.0652C28.7183 42.9238 21.333 35.9905 21.333 29.3332C21.333 26.5042 22.4568 23.7911 24.4572 21.7907C26.4576 19.7903 29.1707 18.6665 31.9997 18.6665C34.8287 18.6665 37.5418 19.7903 39.5421 21.7907C41.5425 23.7911 42.6663 26.5042 42.6663 29.3332Z" stroke="white" stroke-width="2.66667" stroke-linecap="round" stroke-linejoin="round"/>
<path d="M32 33.3335C34.2091 33.3335 36 31.5426 36 29.3335C36 27.1244 34.2091 25.3335 32 25.3335C29.7909 25.3335 28 27.1244 28 29.3335C28 31.5426 29.7909 33.3335 32 33.3335Z" stroke="white" stroke-width="2.66667" stroke-linecap="round" stroke-linejoin="round"/>
</svg>
