<svg width="56" height="56" viewBox="0 0 56 56" fill="none" xmlns="http://www.w3.org/2000/svg">
<path d="M0 14C0 6.26801 6.26801 0 14 0H42C49.732 0 56 6.26801 56 14V42C56 49.732 49.732 56 42 56H14C6.26801 56 0 49.732 0 42V14Z" fill="url(#paint0_linear_21_5060)"/>
<path d="M37.3337 29.1666C37.3337 35 33.2503 37.9166 28.397 39.6083C28.1428 39.6944 27.8668 39.6903 27.6153 39.5966C22.7503 37.9166 18.667 35 18.667 29.1666V21C18.667 20.6905 18.7899 20.3938 19.0087 20.175C19.2275 19.9562 19.5242 19.8333 19.8337 19.8333C22.167 19.8333 25.0837 18.4333 27.1137 16.66C27.3608 16.4488 27.6752 16.3328 28.0003 16.3328C28.3254 16.3328 28.6398 16.4488 28.887 16.66C30.9287 18.445 33.8337 19.8333 36.167 19.8333C36.4764 19.8333 36.7732 19.9562 36.992 20.175C37.2107 20.3938 37.3337 20.6905 37.3337 21V29.1666Z" stroke="white" stroke-width="2.33333" stroke-linecap="round" stroke-linejoin="round"/>
<defs>
<linearGradient id="paint0_linear_21_5060" x1="0" y1="0" x2="56" y2="56" gradientUnits="userSpaceOnUse">
<stop stop-color="#2B7FFF"/>
<stop offset="1" stop-color="#155DFC"/>
</linearGradient>
</defs>
</svg>
