<svg width="64" height="64" viewBox="0 0 64 64" fill="none" xmlns="http://www.w3.org/2000/svg">
<path d="M53.3337 26.6668C53.3337 39.9815 38.563 53.8482 33.603 58.1308C33.1409 58.4783 32.5785 58.6662 32.0003 58.6662C31.4222 58.6662 30.8597 58.4783 30.3977 58.1308C25.4377 53.8482 10.667 39.9815 10.667 26.6668C10.667 21.0089 12.9146 15.5827 16.9154 11.5819C20.9162 7.58111 26.3424 5.3335 32.0003 5.3335C37.6583 5.3335 43.0845 7.58111 47.0853 11.5819C51.086 15.5827 53.3337 21.0089 53.3337 26.6668Z" stroke="#99A1AF" stroke-width="5.33333" stroke-linecap="round" stroke-linejoin="round"/>
<path d="M32 34.6665C36.4183 34.6665 40 31.0848 40 26.6665C40 22.2482 36.4183 18.6665 32 18.6665C27.5817 18.6665 24 22.2482 24 26.6665C24 31.0848 27.5817 34.6665 32 34.6665Z" stroke="#99A1AF" stroke-width="5.33333" stroke-linecap="round" stroke-linejoin="round"/>
</svg>
